<svg xmlns="http://www.w3.org/2000/svg" viewBox="0 0 64 64" shape-rendering="crispEdges" role="img"><rect x="0" y="0" width="64" height="1" fill="#181818"/><rect x="0" y="1" width="64" height="1" fill="#181818"/><rect x="0" y="2" width="64" height="1" fill="#181818"/><rect x="0" y="3" width="64" height="1" fill="#181818"/><rect x="0" y="4" width="64" height="1" fill="#181818"/><rect x="0" y="5" width="64" height="1" fill="#181818"/><rect x="0" y="6" width="64" height="1" fill="#181818"/><rect x="0" y="7" width="37" height="1" fill="#181818"/><rect x="37" y="7" width="5" height="1" fill="#f8f7f5"/><rect x="42" y="7" width="22" height="1" fill="#181818"/><rect x="0" y="8" width="18" height="1" fill="#181818"/><rect x="18" y="8" width="13" height="1" fill="#f8f7f5"/><rect x="31" y="8" width="4" height="1" fill="#181818"/><rect x="35" y="8" width="9" height="1" fill="#f8f7f5"/><rect x="44" y="8" width="20" height="1" fill="#181818"/><rect x="0" y="9" width="18" height="1" fill="#181818"/><rect x="18" y="9" width="13" height="1" fill="#f8f7f5"/><rect x="31" y="9" width="3" height="1" fill="#181818"/><rect x="34" y="9" width="11" height="1" fill="#f8f7f5"/><rect x="45" y="9" width="19" height="1" fill="#181818"/><rect x="0" y="10" width="18" height="1" fill="#181818"/><rect x="18" y="10" width="13" height="1" fill="#f8f7f5"/><rect x="31" y="10" width="2" height="1" fill="#181818"/><rect x="33" y="10" width="13" height="1" fill="#f8f7f5"/><rect x="46" y="10" width="18" height="1" fill="#181818"/><rect x="0" y="11" width="18" height="1" fill="#181818"/><rect x="18" y="11" width="13" height="1" fill="#f8f7f5"/><rect x="31" y="11" width="2" height="1" fill="#181818"/><rect x="33" y="11" width="13" height="1" fill="#f8f7f5"/><rect x="46" y="11" width="18" height="1" fill="#181818"/><rect x="0" y="12" width="18" height="1" fill="#181818"/><rect x="18" y="12" width="13" height="1" fill="#f8f7f5"/><rect x="31" y="12" width="1" height="1" fill="#181818"/><rect x="32" y="12" width="15" height="1" fill="#f8f7f5"/><rect x="47" y="12" width="17" height="1" fill="#181818"/><rect x="0" y="13" width="18" height="1" fill="#181818"/><rect x="18" y="13" width="13" height="1" fill="#f8f7f5"/><rect x="31" y="13" width="1" height="1" fill="#181818"/><rect x="32" y="13" width="15" height="1" fill="#f8f7f5"/><rect x="47" y="13" width="17" height="1" fill="#181818"/><rect x="0" y="14" width="18" height="1" fill="#181818"/><rect x="18" y="14" width="13" height="1" fill="#f8f7f5"/><rect x="31" y="14" width="1" height="1" fill="#181818"/><rect x="32" y="14" width="15" height="1" fill="#f8f7f5"/><rect x="47" y="14" width="17" height="1" fill="#181818"/><rect x="0" y="15" width="18" height="1" fill="#181818"/><rect x="18" y="15" width="13" height="1" fill="#f8f7f5"/><rect x="31" y="15" width="1" height="1" fill="#181818"/><rect x="32" y="15" width="15" height="1" fill="#f8f7f5"/><rect x="47" y="15" width="17" height="1" fill="#181818"/><rect x="0" y="16" width="18" height="1" fill="#181818"/><rect x="18" y="16" width="13" height="1" fill="#f8f7f5"/><rect x="31" y="16" width="1" height="1" fill="#181818"/><rect x="32" y="16" width="15" height="1" fill="#f8f7f5"/><rect x="47" y="16" width="17" height="1" fill="#181818"/><rect x="0" y="17" width="18" height="1" fill="#181818"/><rect x="18" y="17" width="13" height="1" fill="#f8f7f5"/><rect x="31" y="17" width="2" height="1" fill="#181818"/><rect x="33" y="17" width="13" height="1" fill="#f8f7f5"/><rect x="46" y="17" width="18" height="1" fill="#181818"/><rect x="0" y="18" width="18" height="1" fill="#181818"/><rect x="18" y="18" width="13" height="1" fill="#f8f7f5"/><rect x="31" y="18" width="2" height="1" fill="#181818"/><rect x="33" y="18" width="13" height="1" fill="#f8f7f5"/><rect x="46" y="18" width="18" height="1" fill="#181818"/><rect x="0" y="19" width="18" height="1" fill="#181818"/><rect x="18" y="19" width="13" height="1" fill="#f8f7f5"/><rect x="31" y="19" width="3" height="1" fill="#181818"/><rect x="34" y="19" width="11" height="1" fill="#f8f7f5"/><rect x="45" y="19" width="19" height="1" fill="#181818"/><rect x="0" y="20" width="18" height="1" fill="#181818"/><rect x="18" y="20" width="13" height="1" fill="#f8f7f5"/><rect x="31" y="20" width="4" height="1" fill="#181818"/><rect x="35" y="20" width="9" height="1" fill="#f8f7f5"/><rect x="44" y="20" width="20" height="1" fill="#181818"/><rect x="0" y="21" width="37" height="1" fill="#181818"/><rect x="37" y="21" width="5" height="1" fill="#f8f7f5"/><rect x="42" y="21" width="22" height="1" fill="#181818"/><rect x="0" y="22" width="22" height="1" fill="#181818"/><rect x="22" y="22" width="5" height="1" fill="#f8f7f5"/><rect x="27" y="22" width="5" height="1" fill="#181818"/><rect x="32" y="22" width="3" height="1" fill="#f8f7f5"/><rect x="35" y="22" width="29" height="1" fill="#181818"/><rect x="0" y="23" width="20" height="1" fill="#181818"/><rect x="20" y="23" width="9" height="1" fill="#f8f7f5"/><rect x="29" y="23" width="3" height="1" fill="#181818"/><rect x="32" y="23" width="4" height="1" fill="#f8f7f5"/><rect x="36" y="23" width="28" height="1" fill="#181818"/><rect x="0" y="24" width="19" height="1" fill="#181818"/><rect x="19" y="24" width="11" height="1" fill="#f8f7f5"/><rect x="30" y="24" width="2" height="1" fill="#181818"/><rect x="32" y="24" width="5" height="1" fill="#f8f7f5"/><rect x="37" y="24" width="27" height="1" fill="#181818"/><rect x="0" y="25" width="18" height="1" fill="#181818"/><rect x="18" y="25" width="13" height="1" fill="#f8f7f5"/><rect x="31" y="25" width="1" height="1" fill="#181818"/><rect x="32" y="25" width="6" height="1" fill="#f8f7f5"/><rect x="38" y="25" width="26" height="1" fill="#181818"/><rect x="0" y="26" width="18" height="1" fill="#181818"/><rect x="18" y="26" width="13" height="1" fill="#f8f7f5"/><rect x="31" y="26" width="1" height="1" fill="#181818"/><rect x="32" y="26" width="6" height="1" fill="#f8f7f5"/><rect x="38" y="26" width="26" height="1" fill="#181818"/><rect x="0" y="27" width="17" height="1" fill="#181818"/><rect x="17" y="27" width="14" height="1" fill="#f8f7f5"/><rect x="31" y="27" width="1" height="1" fill="#181818"/><rect x="32" y="27" width="13" height="1" fill="#f8f7f5"/><rect x="45" y="27" width="19" height="1" fill="#181818"/><rect x="0" y="28" width="17" height="1" fill="#181818"/><rect x="17" y="28" width="14" height="1" fill="#f8f7f5"/><rect x="31" y="28" width="1" height="1" fill="#181818"/><rect x="32" y="28" width="15" height="1" fill="#f8f7f5"/><rect x="47" y="28" width="17" height="1" fill="#181818"/><rect x="0" y="29" width="17" height="1" fill="#181818"/><rect x="17" y="29" width="14" height="1" fill="#f8f7f5"/><rect x="31" y="29" width="1" height="1" fill="#181818"/><rect x="32" y="29" width="15" height="1" fill="#f8f7f5"/><rect x="47" y="29" width="17" height="1" fill="#181818"/><rect x="0" y="30" width="17" height="1" fill="#181818"/><rect x="17" y="30" width="14" height="1" fill="#f8f7f5"/><rect x="31" y="30" width="1" height="1" fill="#181818"/><rect x="32" y="30" width="15" height="1" fill="#f8f7f5"/><rect x="47" y="30" width="17" height="1" fill="#181818"/><rect x="0" y="31" width="17" height="1" fill="#181818"/><rect x="17" y="31" width="14" height="1" fill="#f8f7f5"/><rect x="31" y="31" width="1" height="1" fill="#181818"/><rect x="32" y="31" width="15" height="1" fill="#f8f7f5"/><rect x="47" y="31" width="17" height="1" fill="#181818"/><rect x="0" y="32" width="18" height="1" fill="#181818"/><rect x="18" y="32" width="13" height="1" fill="#f8f7f5"/><rect x="31" y="32" width="1" height="1" fill="#181818"/><rect x="32" y="32" width="15" height="1" fill="#f8f7f5"/><rect x="47" y="32" width="17" height="1" fill="#181818"/><rect x="0" y="33" width="18" height="1" fill="#181818"/><rect x="18" y="33" width="13" height="1" fill="#f8f7f5"/><rect x="31" y="33" width="1" height="1" fill="#181818"/><rect x="32" y="33" width="15" height="1" fill="#f8f7f5"/><rect x="47" y="33" width="17" height="1" fill="#181818"/><rect x="0" y="34" width="19" height="1" fill="#181818"/><rect x="19" y="34" width="11" height="1" fill="#f8f7f5"/><rect x="30" y="34" width="2" height="1" fill="#181818"/><rect x="32" y="34" width="15" height="1" fill="#f8f7f5"/><rect x="47" y="34" width="17" height="1" fill="#181818"/><rect x="0" y="35" width="20" height="1" fill="#181818"/><rect x="20" y="35" width="9" height="1" fill="#f8f7f5"/><rect x="29" y="35" width="3" height="1" fill="#181818"/><rect x="32" y="35" width="15" height="1" fill="#f8f7f5"/><rect x="47" y="35" width="17" height="1" fill="#181818"/><rect x="0" y="36" width="22" height="1" fill="#181818"/><rect x="22" y="36" width="5" height="1" fill="#f8f7f5"/><rect x="27" y="36" width="5" height="1" fill="#181818"/><rect x="32" y="36" width="15" height="1" fill="#f8f7f5"/><rect x="47" y="36" width="17" height="1" fill="#181818"/><rect x="0" y="37" width="64" height="1" fill="#181818"/><rect x="0" y="38" width="64" height="1" fill="#181818"/><rect x="0" y="39" width="64" height="1" fill="#181818"/><rect x="0" y="40" width="64" height="1" fill="#181818"/><rect x="0" y="41" width="64" height="1" fill="#181818"/><rect x="0" y="42" width="4" height="1" fill="#181818"/><rect x="4" y="42" width="2" height="1" fill="#f8f7f5"/><rect x="6" y="42" width="8" height="1" fill="#181818"/><rect x="14" y="42" width="2" height="1" fill="#f8f7f5"/><rect x="16" y="42" width="22" height="1" fill="#181818"/><rect x="38" y="42" width="2" height="1" fill="#f8f7f5"/><rect x="40" y="42" width="8" height="1" fill="#181818"/><rect x="48" y="42" width="2" height="1" fill="#f8f7f5"/><rect x="50" y="42" width="14" height="1" fill="#181818"/><rect x="0" y="43" width="4" height="1" fill="#181818"/><rect x="4" y="43" width="2" height="1" fill="#f8f7f5"/><rect x="6" y="43" width="8" height="1" fill="#181818"/><rect x="14" y="43" width="2" height="1" fill="#f8f7f5"/><rect x="16" y="43" width="22" height="1" fill="#181818"/><rect x="38" y="43" width="2" height="1" fill="#f8f7f5"/><rect x="40" y="43" width="8" height="1" fill="#181818"/><rect x="48" y="43" width="2" height="1" fill="#f8f7f5"/><rect x="50" y="43" width="14" height="1" fill="#181818"/><rect x="0" y="44" width="4" height="1" fill="#181818"/><rect x="4" y="44" width="2" height="1" fill="#f8f7f5"/><rect x="6" y="44" width="8" height="1" fill="#181818"/><rect x="14" y="44" width="2" height="1" fill="#f8f7f5"/><rect x="16" y="44" width="22" height="1" fill="#181818"/><rect x="38" y="44" width="2" height="1" fill="#f8f7f5"/><rect x="40" y="44" width="8" height="1" fill="#181818"/><rect x="48" y="44" width="2" height="1" fill="#f8f7f5"/><rect x="50" y="44" width="14" height="1" fill="#181818"/><rect x="0" y="45" width="4" height="1" fill="#181818"/><rect x="4" y="45" width="2" height="1" fill="#f8f7f5"/><rect x="6" y="45" width="8" height="1" fill="#181818"/><rect x="14" y="45" width="2" height="1" fill="#f8f7f5"/><rect x="16" y="45" width="22" height="1" fill="#181818"/><rect x="38" y="45" width="2" height="1" fill="#f8f7f5"/><rect x="40" y="45" width="8" height="1" fill="#181818"/><rect x="48" y="45" width="2" height="1" fill="#f8f7f5"/><rect x="50" y="45" width="14" height="1" fill="#181818"/><rect x="0" y="46" width="4" height="1" fill="#181818"/><rect x="4" y="46" width="6" height="1" fill="#f8f7f5"/><rect x="10" y="46" width="4" height="1" fill="#181818"/><rect x="14" y="46" width="2" height="1" fill="#f8f7f5"/><rect x="16" y="46" width="4" height="1" fill="#181818"/><rect x="20" y="46" width="4" height="1" fill="#f8f7f5"/><rect x="24" y="46" width="6" height="1" fill="#181818"/><rect x="30" y="46" width="6" height="1" fill="#f8f7f5"/><rect x="36" y="46" width="2" height="1" fill="#181818"/><rect x="38" y="46" width="2" height="1" fill="#f8f7f5"/><rect x="40" y="46" width="4" height="1" fill="#181818"/><rect x="44" y="46" width="2" height="1" fill="#f8f7f5"/><rect x="46" y="46" width="2" height="1" fill="#181818"/><rect x="48" y="46" width="2" height="1" fill="#f8f7f5"/><rect x="50" y="46" width="2" height="1" fill="#181818"/><rect x="52" y="46" width="2" height="1" fill="#f8f7f5"/><rect x="54" y="46" width="4" height="1" fill="#181818"/><rect x="58" y="46" width="2" height="1" fill="#f8f7f5"/><rect x="60" y="46" width="4" height="1" fill="#181818"/><rect x="0" y="47" width="4" height="1" fill="#181818"/><rect x="4" y="47" width="6" height="1" fill="#f8f7f5"/><rect x="10" y="47" width="4" height="1" fill="#181818"/><rect x="14" y="47" width="2" height="1" fill="#f8f7f5"/><rect x="16" y="47" width="4" height="1" fill="#181818"/><rect x="20" y="47" width="4" height="1" fill="#f8f7f5"/><rect x="24" y="47" width="6" height="1" fill="#181818"/><rect x="30" y="47" width="6" height="1" fill="#f8f7f5"/><rect x="36" y="47" width="2" height="1" fill="#181818"/><rect x="38" y="47" width="2" height="1" fill="#f8f7f5"/><rect x="40" y="47" width="4" height="1" fill="#181818"/><rect x="44" y="47" width="2" height="1" fill="#f8f7f5"/><rect x="46" y="47" width="2" height="1" fill="#181818"/><rect x="48" y="47" width="2" height="1" fill="#f8f7f5"/><rect x="50" y="47" width="2" height="1" fill="#181818"/><rect x="52" y="47" width="2" height="1" fill="#f8f7f5"/><rect x="54" y="47" width="4" height="1" fill="#181818"/><rect x="58" y="47" width="2" height="1" fill="#f8f7f5"/><rect x="60" y="47" width="4" height="1" fill="#181818"/><rect x="0" y="48" width="4" height="1" fill="#181818"/><rect x="4" y="48" width="2" height="1" fill="#f8f7f5"/><rect x="6" y="48" width="4" height="1" fill="#181818"/><rect x="10" y="48" width="2" height="1" fill="#f8f7f5"/><rect x="12" y="48" width="2" height="1" fill="#181818"/><rect x="14" y="48" width="2" height="1" fill="#f8f7f5"/><rect x="16" y="48" width="2" height="1" fill="#181818"/><rect x="18" y="48" width="2" height="1" fill="#f8f7f5"/><rect x="20" y="48" width="4" height="1" fill="#181818"/><rect x="24" y="48" width="2" height="1" fill="#f8f7f5"/><rect x="26" y="48" width="2" height="1" fill="#181818"/><rect x="28" y="48" width="2" height="1" fill="#f8f7f5"/><rect x="30" y="48" width="8" height="1" fill="#181818"/><rect x="38" y="48" width="2" height="1" fill="#f8f7f5"/><rect x="40" y="48" width="2" height="1" fill="#181818"/><rect x="42" y="48" width="2" height="1" fill="#f8f7f5"/><rect x="44" y="48" width="4" height="1" fill="#181818"/><rect x="48" y="48" width="2" height="1" fill="#f8f7f5"/><rect x="50" y="48" width="2" height="1" fill="#181818"/><rect x="52" y="48" width="2" height="1" fill="#f8f7f5"/><rect x="54" y="48" width="4" height="1" fill="#181818"/><rect x="58" y="48" width="2" height="1" fill="#f8f7f5"/><rect x="60" y="48" width="4" height="1" fill="#181818"/><rect x="0" y="49" width="4" height="1" fill="#181818"/><rect x="4" y="49" width="2" height="1" fill="#f8f7f5"/><rect x="6" y="49" width="4" height="1" fill="#181818"/><rect x="10" y="49" width="2" height="1" fill="#f8f7f5"/><rect x="12" y="49" width="2" height="1" fill="#181818"/><rect x="14" y="49" width="2" height="1" fill="#f8f7f5"/><rect x="16" y="49" width="2" height="1" fill="#181818"/><rect x="18" y="49" width="2" height="1" fill="#f8f7f5"/><rect x="20" y="49" width="4" height="1" fill="#181818"/><rect x="24" y="49" width="2" height="1" fill="#f8f7f5"/><rect x="26" y="49" width="2" height="1" fill="#181818"/><rect x="28" y="49" width="2" height="1" fill="#f8f7f5"/><rect x="30" y="49" width="8" height="1" fill="#181818"/><rect x="38" y="49" width="2" height="1" fill="#f8f7f5"/><rect x="40" y="49" width="2" height="1" fill="#181818"/><rect x="42" y="49" width="2" height="1" fill="#f8f7f5"/><rect x="44" y="49" width="4" height="1" fill="#181818"/><rect x="48" y="49" width="2" height="1" fill="#f8f7f5"/><rect x="50" y="49" width="2" height="1" fill="#181818"/><rect x="52" y="49" width="2" height="1" fill="#f8f7f5"/><rect x="54" y="49" width="4" height="1" fill="#181818"/><rect x="58" y="49" width="2" height="1" fill="#f8f7f5"/><rect x="60" y="49" width="4" height="1" fill="#181818"/><rect x="0" y="50" width="4" height="1" fill="#181818"/><rect x="4" y="50" width="2" height="1" fill="#f8f7f5"/><rect x="6" y="50" width="4" height="1" fill="#181818"/><rect x="10" y="50" width="2" height="1" fill="#f8f7f5"/><rect x="12" y="50" width="2" height="1" fill="#181818"/><rect x="14" y="50" width="2" height="1" fill="#f8f7f5"/><rect x="16" y="50" width="2" height="1" fill="#181818"/><rect x="18" y="50" width="2" height="1" fill="#f8f7f5"/><rect x="20" y="50" width="4" height="1" fill="#181818"/><rect x="24" y="50" width="2" height="1" fill="#f8f7f5"/><rect x="26" y="50" width="2" height="1" fill="#181818"/><rect x="28" y="50" width="2" height="1" fill="#f8f7f5"/><rect x="30" y="50" width="8" height="1" fill="#181818"/><rect x="38" y="50" width="4" height="1" fill="#f8f7f5"/><rect x="42" y="50" width="6" height="1" fill="#181818"/><rect x="48" y="50" width="2" height="1" fill="#f8f7f5"/><rect x="50" y="50" width="2" height="1" fill="#181818"/><rect x="52" y="50" width="2" height="1" fill="#f8f7f5"/><rect x="54" y="50" width="4" height="1" fill="#181818"/><rect x="58" y="50" width="2" height="1" fill="#f8f7f5"/><rect x="60" y="50" width="4" height="1" fill="#181818"/><rect x="0" y="51" width="4" height="1" fill="#181818"/><rect x="4" y="51" width="2" height="1" fill="#f8f7f5"/><rect x="6" y="51" width="4" height="1" fill="#181818"/><rect x="10" y="51" width="2" height="1" fill="#f8f7f5"/><rect x="12" y="51" width="2" height="1" fill="#181818"/><rect x="14" y="51" width="2" height="1" fill="#f8f7f5"/><rect x="16" y="51" width="2" height="1" fill="#181818"/><rect x="18" y="51" width="2" height="1" fill="#f8f7f5"/><rect x="20" y="51" width="4" height="1" fill="#181818"/><rect x="24" y="51" width="2" height="1" fill="#f8f7f5"/><rect x="26" y="51" width="2" height="1" fill="#181818"/><rect x="28" y="51" width="2" height="1" fill="#f8f7f5"/><rect x="30" y="51" width="8" height="1" fill="#181818"/><rect x="38" y="51" width="4" height="1" fill="#f8f7f5"/><rect x="42" y="51" width="6" height="1" fill="#181818"/><rect x="48" y="51" width="2" height="1" fill="#f8f7f5"/><rect x="50" y="51" width="2" height="1" fill="#181818"/><rect x="52" y="51" width="2" height="1" fill="#f8f7f5"/><rect x="54" y="51" width="4" height="1" fill="#181818"/><rect x="58" y="51" width="2" height="1" fill="#f8f7f5"/><rect x="60" y="51" width="4" height="1" fill="#181818"/><rect x="0" y="52" width="4" height="1" fill="#181818"/><rect x="4" y="52" width="2" height="1" fill="#f8f7f5"/><rect x="6" y="52" width="4" height="1" fill="#181818"/><rect x="10" y="52" width="2" height="1" fill="#f8f7f5"/><rect x="12" y="52" width="2" height="1" fill="#181818"/><rect x="14" y="52" width="2" height="1" fill="#f8f7f5"/><rect x="16" y="52" width="2" height="1" fill="#181818"/><rect x="18" y="52" width="2" height="1" fill="#f8f7f5"/><rect x="20" y="52" width="4" height="1" fill="#181818"/><rect x="24" y="52" width="2" height="1" fill="#f8f7f5"/><rect x="26" y="52" width="2" height="1" fill="#181818"/><rect x="28" y="52" width="2" height="1" fill="#f8f7f5"/><rect x="30" y="52" width="8" height="1" fill="#181818"/><rect x="38" y="52" width="2" height="1" fill="#f8f7f5"/><rect x="40" y="52" width="2" height="1" fill="#181818"/><rect x="42" y="52" width="2" height="1" fill="#f8f7f5"/><rect x="44" y="52" width="4" height="1" fill="#181818"/><rect x="48" y="52" width="2" height="1" fill="#f8f7f5"/><rect x="50" y="52" width="4" height="1" fill="#181818"/><rect x="54" y="52" width="6" height="1" fill="#f8f7f5"/><rect x="60" y="52" width="4" height="1" fill="#181818"/><rect x="0" y="53" width="4" height="1" fill="#181818"/><rect x="4" y="53" width="2" height="1" fill="#f8f7f5"/><rect x="6" y="53" width="4" height="1" fill="#181818"/><rect x="10" y="53" width="2" height="1" fill="#f8f7f5"/><rect x="12" y="53" width="2" height="1" fill="#181818"/><rect x="14" y="53" width="2" height="1" fill="#f8f7f5"/><rect x="16" y="53" width="2" height="1" fill="#181818"/><rect x="18" y="53" width="2" height="1" fill="#f8f7f5"/><rect x="20" y="53" width="4" height="1" fill="#181818"/><rect x="24" y="53" width="2" height="1" fill="#f8f7f5"/><rect x="26" y="53" width="2" height="1" fill="#181818"/><rect x="28" y="53" width="2" height="1" fill="#f8f7f5"/><rect x="30" y="53" width="8" height="1" fill="#181818"/><rect x="38" y="53" width="2" height="1" fill="#f8f7f5"/><rect x="40" y="53" width="2" height="1" fill="#181818"/><rect x="42" y="53" width="2" height="1" fill="#f8f7f5"/><rect x="44" y="53" width="4" height="1" fill="#181818"/><rect x="48" y="53" width="2" height="1" fill="#f8f7f5"/><rect x="50" y="53" width="4" height="1" fill="#181818"/><rect x="54" y="53" width="6" height="1" fill="#f8f7f5"/><rect x="60" y="53" width="4" height="1" fill="#181818"/><rect x="0" y="54" width="4" height="1" fill="#181818"/><rect x="4" y="54" width="6" height="1" fill="#f8f7f5"/><rect x="10" y="54" width="4" height="1" fill="#181818"/><rect x="14" y="54" width="2" height="1" fill="#f8f7f5"/><rect x="16" y="54" width="4" height="1" fill="#181818"/><rect x="20" y="54" width="4" height="1" fill="#f8f7f5"/><rect x="24" y="54" width="6" height="1" fill="#181818"/><rect x="30" y="54" width="6" height="1" fill="#f8f7f5"/><rect x="36" y="54" width="2" height="1" fill="#181818"/><rect x="38" y="54" width="2" height="1" fill="#f8f7f5"/><rect x="40" y="54" width="4" height="1" fill="#181818"/><rect x="44" y="54" width="2" height="1" fill="#f8f7f5"/><rect x="46" y="54" width="2" height="1" fill="#181818"/><rect x="48" y="54" width="2" height="1" fill="#f8f7f5"/><rect x="50" y="54" width="8" height="1" fill="#181818"/><rect x="58" y="54" width="2" height="1" fill="#f8f7f5"/><rect x="60" y="54" width="4" height="1" fill="#181818"/><rect x="0" y="55" width="4" height="1" fill="#181818"/><rect x="4" y="55" width="6" height="1" fill="#f8f7f5"/><rect x="10" y="55" width="4" height="1" fill="#181818"/><rect x="14" y="55" width="2" height="1" fill="#f8f7f5"/><rect x="16" y="55" width="4" height="1" fill="#181818"/><rect x="20" y="55" width="4" height="1" fill="#f8f7f5"/><rect x="24" y="55" width="6" height="1" fill="#181818"/><rect x="30" y="55" width="6" height="1" fill="#f8f7f5"/><rect x="36" y="55" width="2" height="1" fill="#181818"/><rect x="38" y="55" width="2" height="1" fill="#f8f7f5"/><rect x="40" y="55" width="4" height="1" fill="#181818"/><rect x="44" y="55" width="2" height="1" fill="#f8f7f5"/><rect x="46" y="55" width="2" height="1" fill="#181818"/><rect x="48" y="55" width="2" height="1" fill="#f8f7f5"/><rect x="50" y="55" width="8" height="1" fill="#181818"/><rect x="58" y="55" width="2" height="1" fill="#f8f7f5"/><rect x="60" y="55" width="4" height="1" fill="#181818"/><rect x="0" y="56" width="52" height="1" fill="#181818"/><rect x="52" y="56" width="6" height="1" fill="#f8f7f5"/><rect x="58" y="56" width="6" height="1" fill="#181818"/><rect x="0" y="57" width="52" height="1" fill="#181818"/><rect x="52" y="57" width="6" height="1" fill="#f8f7f5"/><rect x="58" y="57" width="6" height="1" fill="#181818"/><rect x="0" y="58" width="64" height="1" fill="#181818"/><rect x="0" y="59" width="64" height="1" fill="#181818"/><rect x="0" y="60" width="64" height="1" fill="#181818"/><rect x="0" y="61" width="64" height="1" fill="#181818"/><rect x="0" y="62" width="64" height="1" fill="#181818"/><rect x="0" y="63" width="64" height="1" fill="#181818"/></svg>
