<svg xmlns="http://www.w3.org/2000/svg" viewBox="0 0 16 16" shape-rendering="crispEdges" role="img"><rect x="2" y="2" width="12" height="1" fill="#4a3520"/><rect x="2" y="3" width="1" height="1" fill="#4a3520"/><rect x="3" y="3" width="10" height="1" fill="#b07a46"/><rect x="13" y="3" width="1" height="1" fill="#4a3520"/><rect x="2" y="4" width="1" height="1" fill="#4a3520"/><rect x="3" y="4" width="1" height="1" fill="#b07a46"/><rect x="4" y="4" width="1" height="1" fill="#8d5f34"/><rect x="5" y="4" width="5" height="1" fill="#b07a46"/><rect x="10" y="4" width="1" height="1" fill="#8d5f34"/><rect x="11" y="4" width="2" height="1" fill="#b07a46"/><rect x="13" y="4" width="1" height="1" fill="#4a3520"/><rect x="2" y="5" width="1" height="1" fill="#4a3520"/><rect x="3" y="5" width="4" height="1" fill="#b07a46"/><rect x="7" y="5" width="2" height="1" fill="#d9b25a"/><rect x="9" y="5" width="4" height="1" fill="#b07a46"/><rect x="13" y="5" width="1" height="1" fill="#4a3520"/><rect x="2" y="6" width="5" height="1" fill="#4a3520"/><rect x="7" y="6" width="2" height="1" fill="#d9b25a"/><rect x="9" y="6" width="5" height="1" fill="#4a3520"/><rect x="2" y="7" width="1" height="1" fill="#4a3520"/><rect x="3" y="7" width="4" height="1" fill="#b07a46"/><rect x="7" y="7" width="2" height="1" fill="#d9b25a"/><rect x="9" y="7" width="4" height="1" fill="#b07a46"/><rect x="13" y="7" width="1" height="1" fill="#4a3520"/><rect x="2" y="8" width="1" height="1" fill="#4a3520"/><rect x="3" y="8" width="10" height="1" fill="#b07a46"/><rect x="13" y="8" width="1" height="1" fill="#4a3520"/><rect x="2" y="9" width="1" height="1" fill="#4a3520"/><rect x="3" y="9" width="1" height="1" fill="#b07a46"/><rect x="4" y="9" width="1" height="1" fill="#8d5f34"/><rect x="5" y="9" width="6" height="1" fill="#b07a46"/><rect x="11" y="9" width="1" height="1" fill="#8d5f34"/><rect x="12" y="9" width="1" height="1" fill="#b07a46"/><rect x="13" y="9" width="1" height="1" fill="#4a3520"/><rect x="2" y="10" width="1" height="1" fill="#4a3520"/><rect x="3" y="10" width="10" height="1" fill="#b07a46"/><rect x="13" y="10" width="1" height="1" fill="#4a3520"/><rect x="2" y="11" width="1" height="1" fill="#4a3520"/><rect x="3" y="11" width="1" height="1" fill="#b07a46"/><rect x="4" y="11" width="1" height="1" fill="#8d5f34"/><rect x="5" y="11" width="5" height="1" fill="#b07a46"/><rect x="10" y="11" width="1" height="1" fill="#8d5f34"/><rect x="11" y="11" width="2" height="1" fill="#b07a46"/><rect x="13" y="11" width="1" height="1" fill="#4a3520"/><rect x="2" y="12" width="1" height="1" fill="#4a3520"/><rect x="3" y="12" width="10" height="1" fill="#b07a46"/><rect x="13" y="12" width="1" height="1" fill="#4a3520"/><rect x="2" y="13" width="12" height="1" fill="#4a3520"/></svg>
