<svg xmlns="http://www.w3.org/2000/svg" viewBox="0 0 16 16" shape-rendering="crispEdges" role="img"><rect x="7" y="2" width="2" height="1" fill="#f0932b"/><rect x="6" y="3" width="1" height="1" fill="#f0932b"/><rect x="7" y="3" width="2" height="1" fill="#ffd166"/><rect x="9" y="3" width="1" height="1" fill="#f0932b"/><rect x="6" y="4" width="3" height="1" fill="#ffd166"/><rect x="9" y="4" width="1" height="1" fill="#f0932b"/><rect x="7" y="5" width="2" height="1" fill="#ffd166"/><rect x="6" y="6" width="1" height="1" fill="#8d5f34"/><rect x="7" y="6" width="2" height="1" fill="#6f4a28"/><rect x="9" y="6" width="1" height="1" fill="#8d5f34"/><rect x="6" y="7" width="1" height="1" fill="#8d5f34"/><rect x="7" y="7" width="2" height="1" fill="#6f4a28"/><rect x="9" y="7" width="1" height="1" fill="#8d5f34"/><rect x="6" y="8" width="1" height="1" fill="#8d5f34"/><rect x="7" y="8" width="2" height="1" fill="#6f4a28"/><rect x="9" y="8" width="1" height="1" fill="#8d5f34"/><rect x="6" y="9" width="1" height="1" fill="#8d5f34"/><rect x="7" y="9" width="2" height="1" fill="#6f4a28"/><rect x="9" y="9" width="1" height="1" fill="#8d5f34"/><rect x="6" y="10" width="1" height="1" fill="#8d5f34"/><rect x="7" y="10" width="2" height="1" fill="#6f4a28"/><rect x="9" y="10" width="1" height="1" fill="#8d5f34"/><rect x="6" y="11" width="1" height="1" fill="#8d5f34"/><rect x="7" y="11" width="2" height="1" fill="#6f4a28"/><rect x="9" y="11" width="1" height="1" fill="#8d5f34"/><rect x="6" y="12" width="1" height="1" fill="#8d5f34"/><rect x="7" y="12" width="2" height="1" fill="#6f4a28"/><rect x="9" y="12" width="1" height="1" fill="#8d5f34"/><rect x="6" y="13" width="1" height="1" fill="#8d5f34"/><rect x="7" y="13" width="2" height="1" fill="#6f4a28"/><rect x="9" y="13" width="1" height="1" fill="#8d5f34"/></svg>
