<svg xmlns="http://www.w3.org/2000/svg" viewBox="0 0 16 16" shape-rendering="crispEdges"><rect x="3" y="2" width="3" height="1" fill="#2b3136"/><rect x="10" y="2" width="3" height="1" fill="#2b3136"/><rect x="2" y="3" width="1" height="1" fill="#2b3136"/><rect x="3" y="3" width="3" height="1" fill="#f05a66"/><rect x="6" y="3" width="1" height="1" fill="#2b3136"/><rect x="9" y="3" width="1" height="1" fill="#2b3136"/><rect x="10" y="3" width="3" height="1" fill="#a82838"/><rect x="13" y="3" width="1" height="1" fill="#2b3136"/><rect x="1" y="4" width="1" height="1" fill="#2b3136"/><rect x="2" y="4" width="1" height="1" fill="#f05a66"/><rect x="3" y="4" width="2" height="1" fill="#ffa3ab"/><rect x="5" y="4" width="2" height="1" fill="#f05a66"/><rect x="7" y="4" width="2" height="1" fill="#2b3136"/><rect x="9" y="4" width="4" height="1" fill="#a82838"/><rect x="13" y="4" width="1" height="1" fill="#7d1c2a"/><rect x="14" y="4" width="1" height="1" fill="#2b3136"/><rect x="1" y="5" width="1" height="1" fill="#2b3136"/><rect x="2" y="5" width="1" height="1" fill="#ffa3ab"/><rect x="3" y="5" width="1" height="1" fill="#f05a66"/><rect x="4" y="5" width="1" height="1" fill="#ffffff"/><rect x="5" y="5" width="2" height="1" fill="#f05a66"/><rect x="7" y="5" width="1" height="1" fill="#2b3136"/><rect x="8" y="5" width="5" height="1" fill="#a82838"/><rect x="13" y="5" width="1" height="1" fill="#7d1c2a"/><rect x="14" y="5" width="1" height="1" fill="#2b3136"/><rect x="1" y="6" width="1" height="1" fill="#2b3136"/><rect x="2" y="6" width="1" height="1" fill="#ffa3ab"/><rect x="3" y="6" width="5" height="1" fill="#f05a66"/><rect x="8" y="6" width="1" height="1" fill="#2b3136"/><rect x="9" y="6" width="4" height="1" fill="#a82838"/><rect x="13" y="6" width="1" height="1" fill="#7d1c2a"/><rect x="14" y="6" width="1" height="1" fill="#2b3136"/><rect x="1" y="7" width="1" height="1" fill="#2b3136"/><rect x="2" y="7" width="5" height="1" fill="#f05a66"/><rect x="7" y="7" width="1" height="1" fill="#2b3136"/><rect x="8" y="7" width="5" height="1" fill="#a82838"/><rect x="13" y="7" width="1" height="1" fill="#7d1c2a"/><rect x="14" y="7" width="1" height="1" fill="#2b3136"/><rect x="2" y="8" width="1" height="1" fill="#2b3136"/><rect x="3" y="8" width="5" height="1" fill="#f05a66"/><rect x="8" y="8" width="1" height="1" fill="#2b3136"/><rect x="9" y="8" width="3" height="1" fill="#a82838"/><rect x="12" y="8" width="1" height="1" fill="#7d1c2a"/><rect x="13" y="8" width="1" height="1" fill="#2b3136"/><rect x="3" y="9" width="1" height="1" fill="#2b3136"/><rect x="4" y="9" width="3" height="1" fill="#f05a66"/><rect x="7" y="9" width="1" height="1" fill="#2b3136"/><rect x="8" y="9" width="3" height="1" fill="#a82838"/><rect x="11" y="9" width="1" height="1" fill="#7d1c2a"/><rect x="12" y="9" width="1" height="1" fill="#2b3136"/><rect x="4" y="10" width="1" height="1" fill="#2b3136"/><rect x="5" y="10" width="3" height="1" fill="#f05a66"/><rect x="8" y="10" width="1" height="1" fill="#2b3136"/><rect x="9" y="10" width="1" height="1" fill="#a82838"/><rect x="10" y="10" width="1" height="1" fill="#7d1c2a"/><rect x="11" y="10" width="1" height="1" fill="#2b3136"/><rect x="5" y="11" width="1" height="1" fill="#2b3136"/><rect x="6" y="11" width="1" height="1" fill="#f05a66"/><rect x="7" y="11" width="1" height="1" fill="#2b3136"/><rect x="8" y="11" width="2" height="1" fill="#a82838"/><rect x="10" y="11" width="1" height="1" fill="#2b3136"/><rect x="6" y="12" width="1" height="1" fill="#2b3136"/><rect x="7" y="12" width="1" height="1" fill="#f05a66"/><rect x="8" y="12" width="1" height="1" fill="#7d1c2a"/><rect x="9" y="12" width="1" height="1" fill="#2b3136"/><rect x="7" y="13" width="2" height="1" fill="#2b3136"/></svg>
